#!OML:ASF I:\golf\golf\golf 2\Subject 1\2002-09-07\Subject1.ASF
:FULLY-SPECIFIED
:DEGREES
173
root 1.11589 18.2432 -6.75599 16.519 11.4143 -3.99048
lowerback 4.36856 1.53835 -1.05217
upperback 4.56135 1.9786 4.54481
thorax 2.06078 0.896967 5.24631
lowerneck -16.2752 -2.32458 -0.519815
upperneck 40.5323 -0.38429 -6.42746
head 17.747 -1.02917 -2.92523
rclavicle -1.11319e-014 -1.98785e-014
rhumerus -16.2478 7.23409 -80.7342
rradius 32.7402
rwrist -9.50887
rhand -30.8869 16.3943
rfingers 7.12502
rthumb -4.17394 -13.5445
lclavicle -1.11319e-014 -1.98785e-014
lhumerus -27.7656 -5.65001 89.0309
lradius 38.3698
lwrist 12.0319
lhand -13.2994 35.9845
lfingers 7.12502
lthumb 12.8046 65.5718
rfemur -39.5369 -5.58841 22.65
rtibia 21.0173
rfoot -5.49049 -5.7836
rtoes -7.57156
lfemur -18.7786 1.10968 -18.1207
ltibia 19.609
lfoot -14.9763 -10.4516
ltoes 4.33426
174
root 1.08946 18.2518 -6.72968 16.9716 12.0577 -4.25839
lowerback 4.49071 1.5361 -0.666612
upperback 4.40855 1.99165 4.73731
thorax 1.83859 0.916915 5.22118
lowerneck -16.1529 -2.46261 -0.50538
upperneck 40.4973 -0.631153 -6.35411
head 17.6785 -1.11163 -2.93257
rclavicle 1.39149e-014 -3.10104e-014
rhumerus -16.0145 7.16875 -80.5364
rradius 32.8163
rwrist -9.62417
rhand -30.8915 16.4133
rfingers 7.12502
rthumb -4.17837 -13.5255
lclavicle 1.39149e-014 -3.10104e-014
lhumerus -27.9986 -6.40145 89.3526
lradius 38.6778
lwrist 12.3757
lhand -13.5243 35.75
lfingers 7.12502
lthumb 12.5877 65.3508
rfemur -39.7485 -4.94197 22.693
rtibia 19.8241
rfoot -5.17505 -5.85825
rtoes -7.3663
lfemur -19.3566 0.929983 -17.5707
ltibia 19.5527
lfoot -14.8942 -10.8823
ltoes 4.83289
175
root 1.0576 18.259 -6.70447 17.4732 12.8407 -4.82836
lowerback 4.57478 1.50481 -0.00531192
upperback 4.20939 1.97734 5.02265
thorax 1.59845 0.928347 5.13793
lowerneck -16.1078 -2.59844 -0.453787
upperneck 40.5239 -0.868751 -6.31585
head 17.666 -1.18992 -2.96719
rclavicle 8.78628e-014 -1.59028e-015
rhumerus -15.7456 6.99465 -80.3862
rradius 32.824
rwrist -9.57177
rhand -30.982 16.3979
rfingers 7.12502
rthumb -4.26572 -13.5391
lclavicle 8.78628e-014 -1.59028e-015
lhumerus -28.2234 -7.08538 89.6584
lradius 38.9708
lwrist 12.5774
lhand -13.5879 35.6382
lfingers 7.12502
lthumb 12.5265 65.2427
rfemur -40.0714 -3.99221 22.9039
rtibia 18.6809
rfoot -5.02307 -6.19529
rtoes -6.96141
lfemur -20.1023 0.99316 -16.6988
ltibia 19.448
lfoot -14.8667 -11.4223
ltoes 4.43766
176
root 1.03354 18.2621 -6.67152 17.9517 13.3447 -4.92119
lowerback 4.55117 1.47351 0.13822
upperback 4.21368 1.93919 5.21838
thorax 1.61833 0.910265 5.26461
lowerneck -16.3131 -2.72035 -0.629484
upperneck 40.5685 -1.03431 -6.19063
head 17.7412 -1.26462 -2.91658
rclavicle 4.37326e-015 -1.59028e-014
rhumerus -15.1839 7.10628 -80.1694
rradius 32.7644
rwrist -9.58163
rhand -31.1795 16.3695
rfingers 7.12502
rthumb -4.45645 -13.5636
lclavicle 4.37326e-015 -1.59028e-014
lhumerus -28.1344 -7.42728 89.9871
lradius 39.1513
lwrist 12.6098
lhand -13.5138 35.6521
lfingers 7.12502
lthumb 12.5979 65.2522
rfemur -40.3246 -3.31673 22.6722
rtibia 17.6569
rfoot -4.90697 -6.11609
rtoes -6.96291
lfemur -20.5815 1.02224 -16.4253
ltibia 19.2855
lfoot -14.8913 -11.7336
ltoes 3.83665
177
root 1.01736 18.2631 -6.63249 18.4014 13.6038 -4.50455
lowerback 4.71485 1.45159 -0.20279
upperback 4.22598 1.90455 5.29181
thorax 1.53059 0.885391 5.53363
lowerneck -16.4695 -2.83009 -0.921431
upperneck 40.567 -1.15007 -6.04585
head 17.7838 -1.33481 -2.82271
rclavicle 9.54166e-015 1.51076e-014
rhumerus -14.76 7.33043 -79.9219
rradius 32.7982
rwrist -9.53515
rhand -31.4729 16.4256
rfingers 7.12502
rthumb -4.7398 -13.5014
lclavicle 9.54166e-015 1.51076e-014
lhumerus -28.1242 -7.62143 90.3695
lradius 39.3214
lwrist 12.6291
lhand -13.5724 35.7089
lfingers 7.12502
lthumb 12.5413 65.3125
rfemur -40.4939 -2.83868 21.9064
rtibia 16.8307
rfoot -4.64948 -5.72814
rtoes -6.37423
lfemur -20.7471 0.848957 -16.7453
ltibia 18.9927
lfoot -14.7779 -11.928
ltoes 4.39066
178
root 0.998432 18.264 -6.59624 18.9337 14.0192 -4.06193
lowerback 4.84499 1.42372 -0.473812
upperback 4.17746 1.86493 5.31375
thorax 1.4031 0.861977 5.70867
lowerneck -16.4847 -2.96878 -0.934453
upperneck 40.4575 -1.35956 -6.04662
head 17.7135 -1.41933 -2.85282
rclavicle 3.73715e-014 3.97569e-015
rhumerus -14.4018 7.16147 -79.7251
rradius 32.8478
rwrist -9.33433
rhand -31.6677 16.506
rfingers 7.12502
rthumb -4.92787 -13.4167
lclavicle 3.73715e-014 3.97569e-015
lhumerus -28.14 -8.00436 90.69
lradius 39.47
lwrist 12.6144
lhand -13.565 35.7532
lfingers 7.12502
lthumb 12.5485 65.3563
rfemur -40.843 -2.32969 21.0435
rtibia 16.2938
rfoot -4.3933 -5.50829
rtoes -5.3927
lfemur -20.9356 0.579528 -17.0391
ltibia 18.4944
lfoot -14.4469 -12.3002
ltoes 5.56661
179
root 0.976275 18.2641 -6.55984 19.4807 14.4843 -3.65033
lowerback 4.91314 1.41876 -0.666706
upperback 4.15574 1.85522 5.30059
thorax 1.33844 0.854648 5.80326
lowerneck -16.5309 -3.13074 -0.859071
upperneck 40.335 -1.64045 -6.03592
head 17.6378 -1.51756 -2.90663
rclavicle -2.46493e-014 -2.14687e-014
rhumerus -13.9368 6.94095 -79.5569
rradius 32.7948
rwrist -9.24553
rhand -31.8735 16.4762
rfingers 7.12502
rthumb -5.12654 -13.4418
lclavicle -2.46493e-014 -2.14687e-014
lhumerus -28.0828 -8.58499 90.9524
lradius 39.59
lwrist 12.6391
lhand -13.4964 35.7465
lfingers 7.12502
lthumb 12.6146 65.3456
rfemur -41.2726 -1.78783 20.191
rtibia 15.9369
rfoot -4.20413 -5.41651
rtoes -4.58185
lfemur -21.1259 0.382973 -17.2814
ltibia 17.928
lfoot -14.1825 -12.716
ltoes 5.83405
180
root 0.953297 18.2624 -6.52028 19.9426 14.8667 -3.21462
lowerback 5.1541 1.42333 -0.922185
upperback 4.14398 1.85853 5.30234
thorax 1.18433 0.853906 5.9449
lowerneck -16.5853 -3.26342 -0.867218
upperneck 40.1939 -1.86561 -5.97904
head 17.5601 -1.60057 -2.91297
rclavicle -7.95139e-015 3.81667e-014
rhumerus -13.4863 6.91262 -79.3756
rradius 32.7265
rwrist -9.20581
rhand -31.9915 16.4273
rfingers 7.12502
rthumb -5.24051 -13.4879
lclavicle -7.95139e-015 3.81667e-014
lhumerus -28.1429 -9.18197 91.2453
lradius 39.802
lwrist 12.7883
lhand -13.532 35.6563
lfingers 7.12502
lthumb 12.5804 65.2575
rfemur -41.5698 -1.1898 19.2884
rtibia 15.5943
rfoot -3.93001 -5.35053
rtoes -4.52865
lfemur -21.2285 0.24622 -17.5633
ltibia 17.4464
lfoot -14.0364 -13.0875
ltoes 5.95604
181
root 0.928164 18.2602 -6.48141 20.3784 15.3313 -2.85504
lowerback 5.55677 1.38238 -1.02208
upperback 4.07339 1.81084 5.30599
thorax 0.88932 0.834536 5.99713
lowerneck -16.6474 -3.33926 -0.862051
upperneck 40.0926 -2.02217 -5.88612
head 17.5114 -1.64919 -2.89536
rclavicle -2.8625e-014 2.06736e-014
rhumerus -13.1284 6.8769 -79.2943
rradius 32.6855
rwrist -9.05878
rhand -32.0495 16.3162
rfingers 7.12502
rthumb -5.29656 -13.5976
lclavicle -2.8625e-014 2.06736e-014
lhumerus -28.3556 -9.75239 91.4652
lradius 40.0943
lwrist 12.9416
lhand -13.5824 35.3762
lfingers 7.12502
lthumb 12.5317 64.9804
rfemur -41.7877 -0.651032 18.505
rtibia 15.2097
rfoot -3.6948 -5.31825
rtoes -4.60013
lfemur -21.3654 0.10496 -17.7395
ltibia 17.0266
lfoot -13.8795 -13.4911
ltoes 6.52601
